# xmcd
#
# Track frame offsets: 
#        150
#        17423
#        37601
#        47752
#        58528
#        72983
#        91837
#        113135
#        124514
#        139196
#        160033
#        169324
#
# Disc length: 2458 seconds
#
# Revision: 0
# Processed by: cddbd v1.4PL0 Copyright (c) Steve Scherf et al.
# Submitted via: ExactAudioCopy v0.95a3
#
DISCID=9009980c
DTITLE=Sarah Vaughan - Somewhere Over The Rainbow
DYEAR=2002
DGENRE=
TTITLE0=Somewhere Over The Rainbow
TTITLE1=The Children
TTITLE2=Day In Day Out
TTITLE3=Just One Of Those Things
TTITLE4=I Can't Give You Anything But Love
TTITLE5=The Mystery Of Man
TTITLE6=Sassy's Blues
TTITLE7=I Cried For You
TTITLE8=The More I See You
TTITLE9=Girl Disappointed In Love
TTITLE10=But Not For Me
TTITLE11=Let It Live
EXTD=
EXTT0=
EXTT1=
EXTT2=
EXTT3=
EXTT4=
EXTT5=
EXTT6=
EXTT7=
EXTT8=
EXTT9=
EXTT10=
EXTT11=
PLAYORDER=
